<svg width="640" height="360" viewBox="0 0 640 360" fill="none" xmlns="http://www.w3.org/2000/svg">
  <defs>
    <linearGradient id="bg" x1="0" y1="0" x2="1" y2="1">
      <stop offset="0" stop-color="#0f172a"/>
      <stop offset="1" stop-color="#020617"/>
    </linearGradient>
    <linearGradient id="accent" x1="0" y1="0" x2="1" y2="0">
      <stop offset="0" stop-color="#38bdf8"/>
      <stop offset="1" stop-color="#0ea5e9"/>
    </linearGradient>
  </defs>
  <rect width="640" height="360" rx="24" fill="url(#bg)"/>
  <rect x="56" y="60" width="528" height="248" rx="18" fill="#020617" stroke="#1e293b"/>
  <rect x="80" y="88" width="64" height="8" rx="4" fill="#1e293b"/>
  <rect x="152" y="88" width="96" height="8" rx="4" fill="#1e293b"/>
  <circle cx="88" cy="74" r="4" fill="#ef4444"/>
  <circle cx="100" cy="74" r="4" fill="#facc15"/>
  <circle cx="112" cy="74" r="4" fill="#22c55e"/>
  <rect x="96" y="128" width="196" height="10" rx="5" fill="#1e293b"/>
  <rect x="96" y="150" width="176" height="10" rx="5" fill="#1e293b"/>
  <rect x="96" y="172" width="152" height="10" rx="5" fill="#1e293b"/>
  <rect x="96" y="206" width="112" height="10" rx="5" fill="#1e293b"/>
  <rect x="96" y="228" width="168" height="10" rx="5" fill="#1e293b"/>
  <rect x="336" y="128" width="208" height="132" rx="14" fill="#020617" stroke="#1e293b"/>
  <rect x="352" y="148" width="120" height="10" rx="5" fill="url(#accent)"/>
  <rect x="352" y="172" width="84" height="8" rx="4" fill="#1e293b"/>
  <rect x="352" y="192" width="152" height="8" rx="4" fill="#1e293b"/>
  <rect x="352" y="212" width="104" height="8" rx="4" fill="#1e293b"/>
  <circle cx="526" cy="152" r="10" fill="#0f172a" stroke="#1e293b"/>
  <path d="M521 152L524.5 156L531 148" stroke="#22c55e" stroke-width="2" stroke-linecap="round" stroke-linejoin="round"/>
</svg>
