<svg width="640" height="360" viewBox="0 0 640 360" fill="none" xmlns="http://www.w3.org/2000/svg">
  <rect width="640" height="360" rx="24" fill="#020617"/>
  <rect x="40" y="56" width="560" height="248" rx="18" fill="#020617" stroke="#1e293b"/>
  <rect x="64" y="80" width="80" height="10" rx="5" fill="#1e293b"/>
  <rect x="152" y="80" width="120" height="10" rx="5" fill="#1e293b"/>
  <circle cx="76" cy="64" r="4" fill="#22c55e"/>
  <circle cx="92" cy="64" r="4" fill="#f97316"/>
  <circle cx="108" cy="64" r="4" fill="#ef4444"/>
  <rect x="80" y="124" width="208" height="144" rx="12" fill="#020617" stroke="#1e293b"/>
  <rect x="96" y="140" width="96" height="8" rx="4" fill="#38bdf8"/>
  <rect x="96" y="160" width="144" height="6" rx="3" fill="#1e293b"/>
  <rect x="96" y="176" width="128" height="6" rx="3" fill="#1e293b"/>
  <rect x="96" y="196" width="112" height="6" rx="3" fill="#1e293b"/>
  <rect x="296" y="124" width="264" height="56" rx="14" fill="#020617" stroke="#1e293b"/>
  <rect x="312" y="140" width="152" height="10" rx="5" fill="#22c55e"/>
  <rect x="312" y="160" width="112" height="8" rx="4" fill="#1e293b"/>
  <rect x="296" y="200" width="264" height="68" rx="14" fill="#020617" stroke="#1e293b"/>
  <rect x="312" y="216" width="124" height="8" rx="4" fill="#38bdf8"/>
  <rect x="312" y="236" width="168" height="8" rx="4" fill="#1e293b"/>
</svg>
