<svg width="640" height="360" viewBox="0 0 640 360" fill="none" xmlns="http://www.w3.org/2000/svg">
  <rect width="640" height="360" rx="24" fill="#020617"/>
  <rect x="52" y="64" width="536" height="232" rx="20" fill="#020617" stroke="#1e293b"/>
  <rect x="84" y="96" width="128" height="12" rx="6" fill="#f97316"/>
  <rect x="84" y="120" width="96" height="8" rx="4" fill="#1e293b"/>
  <rect x="84" y="136" width="112" height="8" rx="4" fill="#1e293b"/>
  <rect x="92" y="180" width="168" height="96" rx="16" fill="#020617" stroke="#1e293b"/>
  <ellipse cx="176" cy="212" rx="60" ry="24" fill="#e5e7eb"/>
  <ellipse cx="176" cy="208" rx="40" ry="12" fill="#facc15"/>
  <rect x="152" y="188" width="48" height="24" rx="12" fill="#facc15"/>
  <rect x="140" y="248" width="72" height="8" rx="4" fill="#d4d4d8"/>
  <rect x="328" y="116" width="216" height="48" rx="16" fill="#0f172a" stroke="#1e293b"/>
  <rect x="344" y="132" width="120" height="8" rx="4" fill="#38bdf8"/>
  <rect x="344" y="148" width="88" height="6" rx="3" fill="#1e293b"/>
  <rect x="328" y="192" width="216" height="84" rx="16" fill="#0f172a" stroke="#1e293b"/>
  <rect x="344" y="210" width="136" height="8" rx="4" fill="#22c55e"/>
  <rect x="344" y="228" width="112" height="8" rx="4" fill="#1e293b"/>
</svg>
