<svg width="640" height="360" viewBox="0 0 640 360" fill="none" xmlns="http://www.w3.org/2000/svg">
  <rect width="640" height="360" rx="24" fill="#020617"/>
  <rect x="52" y="60" width="536" height="240" rx="20" fill="#020617" stroke="#1e293b"/>
  <rect x="88" y="92" width="132" height="12" rx="6" fill="#38bdf8"/>
  <rect x="88" y="116" width="96" height="8" rx="4" fill="#1e293b"/>
  <rect x="88" y="132" width="116" height="8" rx="4" fill="#1e293b"/>
  <rect x="96" y="172" width="168" height="104" rx="18" fill="#020617" stroke="#1e293b"/>
  <rect x="112" y="188" width="72" height="56" rx="12" fill="#0f172a" stroke="#1e293b"/>
  <circle cx="148" cy="216" r="16" fill="#38bdf8"/>
  <rect x="192" y="192" width="56" height="8" rx="4" fill="#e5e7eb"/>
  <rect x="192" y="210" width="48" height="8" rx="4" fill="#e5e7eb"/>
  <rect x="192" y="228" width="36" height="8" rx="4" fill="#e5e7eb"/>
  <rect x="304" y="132" width="260" height="68" rx="18" fill="#0f172a" stroke="#1e293b"/>
  <rect x="320" y="150" width="148" height="10" rx="5" fill="#22c55e"/>
  <rect x="320" y="168" width="112" height="8" rx="4" fill="#1e293b"/>
  <rect x="304" y="220" width="260" height="64" rx="18" fill="#0f172a" stroke="#1e293b"/>
  <rect x="320" y="236" width="112" height="8" rx="4" fill="#38bdf8"/>
  <rect x="320" y="252" width="164" height="8" rx="4" fill="#1e293b"/>
</svg>
