<svg width="640" height="360" viewBox="0 0 640 360" fill="none" xmlns="http://www.w3.org/2000/svg">
  <rect width="640" height="360" rx="24" fill="#020617"/>
  <rect x="52" y="60" width="536" height="240" rx="20" fill="#020617" stroke="#1e293b"/>
  <rect x="88" y="92" width="160" height="12" rx="6" fill="#38bdf8"/>
  <rect x="88" y="116" width="120" height="8" rx="4" fill="#1e293b"/>
  <rect x="88" y="132" width="140" height="8" rx="4" fill="#1e293b"/>
  <rect x="96" y="172" width="200" height="104" rx="18" fill="#020617" stroke="#1e293b"/>
  <rect x="112" y="188" width="64" height="64" rx="12" fill="#0f172a" stroke="#1e293b"/>
  <rect x="128" y="184" width="32" height="32" rx="10" fill="#38bdf8"/>
  <rect x="184" y="196" width="80" height="10" rx="5" fill="#e5e7eb"/>
  <rect x="184" y="214" width="60" height="8" rx="4" fill="#e5e7eb"/>
  <rect x="184" y="232" width="44" height="8" rx="4" fill="#e5e7eb"/>
  <rect x="304" y="140" width="260" height="72" rx="18" fill="#0f172a" stroke="#1e293b"/>
  <rect x="320" y="158" width="132" height="10" rx="5" fill="#22c55e"/>
  <rect x="320" y="176" width="164" height="8" rx="4" fill="#1e293b"/>
  <rect x="304" y="232" width="260" height="56" rx="18" fill="#0f172a" stroke="#1e293b"/>
  <rect x="320" y="246" width="88" height="10" rx="5" fill="#38bdf8"/>
  <rect x="420" y="246" width="72" height="10" rx="5" fill="#22c55e"/>
</svg>
