<svg width="640" height="360" viewBox="0 0 640 360" fill="none" xmlns="http://www.w3.org/2000/svg">
  <rect width="640" height="360" rx="24" fill="#020617"/>
  <rect x="60" y="56" width="520" height="248" rx="20" fill="#020617" stroke="#1e293b"/>
  <rect x="96" y="88" width="136" height="12" rx="6" fill="#e11d48"/>
  <rect x="96" y="112" width="112" height="8" rx="4" fill="#1e293b"/>
  <rect x="96" y="128" width="128" height="8" rx="4" fill="#1e293b"/>
  <rect x="104" y="168" width="176" height="120" rx="16" fill="#020617" stroke="#1e293b"/>
  <rect x="124" y="188" width="64" height="64" rx="12" fill="#f97316"/>
  <path d="M156 188C156 176 168 168 176 168C184 168 196 176 196 188" stroke="#fed7aa" stroke-width="3" stroke-linecap="round"/>
  <circle cx="156" cy="220" r="4" fill="#fed7aa"/>
  <circle cx="180" cy="220" r="4" fill="#fed7aa"/>
  <rect x="200" y="196" width="64" height="6" rx="3" fill="#e5e7eb"/>
  <rect x="200" y="210" width="52" height="6" rx="3" fill="#e5e7eb"/>
  <rect x="200" y="224" width="40" height="6" rx="3" fill="#e5e7eb"/>
  <rect x="336" y="132" width="212" height="64" rx="16" fill="#0f172a" stroke="#1e293b"/>
  <rect x="352" y="150" width="110" height="10" rx="5" fill="#38bdf8"/>
  <rect x="352" y="168" width="148" height="8" rx="4" fill="#1e293b"/>
  <rect x="336" y="216" width="212" height="72" rx="16" fill="#0f172a" stroke="#1e293b"/>
  <rect x="352" y="234" width="132" height="8" rx="4" fill="#22c55e"/>
  <rect x="352" y="252" width="96" height="8" rx="4" fill="#1e293b"/>
</svg>
